<svg width="48" height="48" viewBox="0 0 48 48" fill="none" xmlns="http://www.w3.org/2000/svg">
    <path d="M47.8881 14.3331C47.8881 14.3264 47.8859 14.3197 47.8859 14.3131C47.8859 14.3064 47.8881 14.3019 47.8881 14.2952C47.8881 14.2662 47.8792 14.2373 47.877 14.2083C47.8726 14.1503 47.8682 14.0923 47.8571 14.0366C47.8571 14.0321 47.8549 14.0277 47.8527 14.0232C47.7997 13.7824 47.6847 13.5662 47.5013 13.3811C47.4969 13.3767 47.4902 13.3722 47.4836 13.3678C47.4814 13.3655 47.4814 13.3633 47.4792 13.3633L34.8261 0.59749C34.7664 0.537295 34.7045 0.48602 34.6382 0.439201C34.6183 0.419136 34.6006 0.396844 34.5785 0.379009C34.2934 0.144917 33.9685 0.0468195 33.6061 0.0847201C33.2414 0.122621 32.9475 0.280913 32.722 0.559593L17.9317 19.3003C17.7239 19.5567 17.6333 19.851 17.6466 20.1832C17.6444 20.2077 17.64 20.23 17.64 20.2545V42.7764L14.3756 40.7342V19.1197L27.7669 2.16702C27.8508 2.06224 27.9127 1.94854 27.9614 1.83484C27.968 1.82146 27.9724 1.80809 27.9768 1.79471C28.0011 1.73228 28.021 1.66763 28.0343 1.60297C28.0387 1.58068 28.0431 1.55616 28.0476 1.53386C28.0564 1.48035 28.0608 1.42462 28.063 1.36665C28.063 1.34436 28.0696 1.3243 28.0696 1.29977C28.0696 1.27302 28.063 1.25072 28.063 1.22396C28.063 1.21059 28.0652 1.19499 28.063 1.18161C28.0608 1.16823 28.0564 1.15485 28.0564 1.14148C28.0498 1.07459 28.0365 1.00994 28.021 0.945283C28.0166 0.922989 28.0078 0.902924 28.0033 0.882859C27.9879 0.833811 27.9702 0.784765 27.9459 0.737946C27.9238 0.688899 27.8951 0.642084 27.8663 0.595265C27.8575 0.581889 27.8509 0.568509 27.842 0.557362C27.7779 0.465954 27.7072 0.37901 27.6166 0.303208C27.4309 0.149376 27.2254 0.0624281 27.0066 0.0245275H27.0044C26.9403 0.0133802 26.8762 0.00891752 26.8099 0.00668807C26.7856 0.00668807 26.7635 0 26.7391 0H19.6291C19.6026 0 19.576 0.00668807 19.5495 0.00668807C19.5252 0.00891752 19.5031 0.00445862 19.4766 0.00668807C19.4567 0.00891752 19.4412 0.0156099 19.4235 0.0178394C19.3816 0.0245277 19.3396 0.0334423 19.2976 0.04236C19.2467 0.0535073 19.1959 0.0691161 19.1473 0.0869517C19.1274 0.09364 19.1097 0.102555 19.0898 0.111472C18.8997 0.191732 18.7318 0.312123 18.5947 0.481561L6.51849 15.8358C6.31074 16.0921 6.22011 16.3864 6.23338 16.7186C6.23117 16.7431 6.22675 16.7654 6.22675 16.79V36.0457L3.52815 34.3602V14.9105L13.5821 2.16702C13.8164 1.87942 13.9137 1.54947 13.8783 1.18161C13.8429 0.813752 13.6926 0.52169 13.4296 0.305433C13.1445 0.0713412 12.8196 -0.0267493 12.4572 0.0111513C12.0925 0.0490519 11.7985 0.207337 11.5731 0.486018L1.20971 13.6197C1.00196 13.8761 0.911331 14.1704 0.924592 14.5026C0.922382 14.5271 0.917969 14.5494 0.917969 14.5739V34.8819C0.917969 34.9176 0.924594 34.9488 0.926804 34.9823C0.917964 35.1116 0.922383 35.2431 0.953325 35.3791C1.0351 35.738 1.22739 36.0145 1.52797 36.2062L6.81465 39.517C7.04008 39.6619 7.2832 39.7287 7.53958 39.7176C7.544 39.7176 7.54621 39.7176 7.55063 39.7176C7.91751 39.7176 8.22251 39.5861 8.46783 39.3252C8.65349 39.1268 8.7662 38.8972 8.81262 38.6386C8.82367 38.5761 8.82809 38.5137 8.82809 38.4513C8.8303 38.4245 8.83473 38.4022 8.83473 38.3755V17.1288L20.2325 2.63744H24.0604L12.0571 17.8311C11.8494 18.0897 11.7565 18.3863 11.772 18.7207C11.7698 18.7452 11.7654 18.7675 11.7654 18.792V41.2582C11.7654 41.2938 11.772 41.325 11.7742 41.3585C11.7654 41.4878 11.7698 41.6193 11.8007 41.7553C11.8825 42.1143 12.0748 42.3907 12.3754 42.5824L18.0002 46.1005C18.3008 46.2922 18.6301 46.348 18.9882 46.2677C19.0942 46.2432 19.1915 46.2075 19.2821 46.1629C19.512 46.1072 19.7131 45.9935 19.8833 45.8107C20.1286 45.5498 20.2501 45.231 20.2501 44.8587V20.5912L33.8602 3.3464L45.2801 14.866V33.8675L42.6854 35.3078V17.2202C42.6854 17.2136 42.6832 17.2069 42.6832 17.2002C42.6832 17.1935 42.6854 17.189 42.6854 17.1824C42.6854 17.1534 42.6765 17.1244 42.6743 17.0954C42.6699 17.0374 42.6655 16.9795 42.6544 16.9237C42.6544 16.9193 42.6522 16.9148 42.65 16.9104C42.597 16.6696 42.482 16.4533 42.2986 16.2683C42.2942 16.2638 42.2876 16.2594 42.2809 16.2549C42.2787 16.2527 42.2787 16.2504 42.2765 16.2504L35.3079 9.74491C35.3057 9.74268 35.3035 9.74045 35.3013 9.74045C35.2681 9.70032 35.235 9.65796 35.1952 9.62006C34.9255 9.36814 34.6073 9.24998 34.2426 9.26558C33.8757 9.28119 33.5729 9.42164 33.332 9.68472L23.6692 21.3938C23.4283 21.6568 23.3134 21.9734 23.3267 22.3435C23.3289 22.397 23.3399 22.4461 23.3466 22.4974C23.3355 22.5687 23.3267 22.6423 23.3267 22.7203V46.6757C23.3267 46.6891 23.3289 46.7002 23.3311 46.7136C23.3311 46.7649 23.3377 46.8139 23.3443 46.8652C23.3488 46.8986 23.351 46.9321 23.3598 46.9633C23.3687 47.0012 23.3819 47.0369 23.393 47.0725C23.4085 47.1216 23.4261 47.1729 23.446 47.2197C23.4482 47.2242 23.4482 47.2264 23.4504 47.2308C23.4571 47.242 23.4637 47.2509 23.4703 47.2621C23.5013 47.3222 23.5344 47.3824 23.5764 47.4382C23.5963 47.4649 23.6184 47.4872 23.6383 47.514C23.6648 47.5452 23.6869 47.5786 23.7157 47.6076C23.7267 47.6188 23.74 47.6255 23.751 47.6366C23.7621 47.6477 23.7753 47.6567 23.7864 47.6656C24.0317 47.8841 24.319 48 24.655 48C24.9578 48 25.2164 47.9064 25.4352 47.728L36.3953 41.5836C36.6959 41.4365 36.9036 41.2024 37.0296 40.8858C37.034 40.8747 37.0407 40.8635 37.0451 40.8524C37.0495 40.8435 37.0539 40.8346 37.0561 40.8256C37.0738 40.7766 37.0804 40.7275 37.0915 40.6785C37.0981 40.6517 37.107 40.6272 37.1114 40.5982C37.1202 40.5425 37.1224 40.4868 37.1246 40.431C37.1268 40.3998 37.1313 40.3731 37.1313 40.3418V20.1141C37.1313 19.7418 37.0009 19.4252 36.7445 19.1621C36.4859 18.9012 36.1875 18.7697 35.8472 18.7697C35.4803 18.7697 35.1664 18.9012 34.9101 19.1621C34.6515 19.4252 34.5233 19.7351 34.5233 20.094V39.6262L25.9369 44.4418V22.7537L34.4106 12.4849L40.0774 17.7776V37.4681C40.0774 37.827 40.2056 38.1369 40.4642 38.4C40.7228 38.6608 41.0344 38.7924 41.4013 38.7924C41.4234 38.7924 41.4455 38.7879 41.4676 38.7857C41.6643 38.7901 41.8588 38.75 42.0466 38.6586L47.1101 35.8517C47.351 35.7336 47.5344 35.5597 47.6626 35.3323C47.8129 35.1093 47.8881 34.8529 47.8881 34.5609V14.3331V14.3331Z" fill="#000"/>
</svg>
