<svg width="615" height="94" viewBox="0 0 615 94" fill="none" xmlns="http://www.w3.org/2000/svg">
<path fill-rule="evenodd" clip-rule="evenodd" d="M36.0583 0.478419C35.7243 0.741741 29.9397 7.84607 23.2033 16.2662L10.9557 31.5757L10.7634 50.9876L10.5712 70.3992L8.16869 68.988L5.76613 67.5773V48.4187V29.2597L15.946 16.6394C23.6727 7.06032 26.1275 3.76497 26.1329 2.9662C26.1429 1.46741 24.8505 0.30925 23.3317 0.455838C22.2288 0.562238 21.0079 1.92669 11.0714 14.1612L0.0361344 27.7483L0.0180672 48.6365L0 69.5242L0.86492 70.3C2.6924 71.9385 12.5971 77.6953 13.5888 77.6953C14.1489 77.6953 14.9535 77.3508 15.3764 76.9298C16.1263 76.1831 16.1456 75.6415 16.1636 55.0182L16.1817 33.8721L27.3857 19.8066L38.5893 5.74103H42.1862C45.0612 5.74103 45.7212 5.84207 45.4756 6.24547C45.1799 6.73002 38.7792 14.8134 27.3219 29.1702L21.9113 35.9503V58.8854C21.9113 80.1739 21.9597 81.877 22.584 82.6061C23.5812 83.7712 34.5891 90.7083 35.4402 90.7083C36.4815 90.7083 38.3044 89.7001 38.5866 88.9687C38.7177 88.6281 38.8253 77.5483 38.8253 64.347V40.3449L47.1862 30.0198C51.7849 24.3408 57.882 16.8059 60.7354 13.2756L65.9242 6.85632L77.1728 18.108L88.4213 29.3596L88.3218 47.8821L88.2218 66.4046L85.9154 67.6377C84.6468 68.3159 83.479 68.8755 83.3206 68.8816C83.1622 68.8874 83.0323 60.7255 83.0323 50.7442V32.596L75.2757 25.4645C68.389 19.1326 67.3895 18.3457 66.3624 18.4478C65.3626 18.547 63.8299 20.1992 55.0904 30.5989L44.9758 42.6352L44.9816 67.5329C44.9851 81.2268 45.1146 92.62 45.2699 92.8516C45.7927 93.6308 47.3046 94.1973 48.1618 93.9351C49.2232 93.6105 70.677 81.6118 71.5961 80.8287C72.2216 80.2959 72.2689 78.7857 72.2689 59.324C72.2689 39.5316 72.2304 38.3577 71.5658 37.7587C70.7043 36.9822 68.4517 36.9328 67.4411 37.6684C66.7214 38.192 66.6911 38.9211 66.5846 58.0491L66.4747 77.8866L58.5716 82.2881C54.2251 84.7089 50.5121 86.7469 50.321 86.817C50.1161 86.8924 49.9731 78.2219 49.9731 65.7359V44.5267L58.281 34.876C62.8501 29.5682 66.7856 25.2881 67.0263 25.365C67.2669 25.4419 69.7417 27.56 72.5256 30.0711L77.5875 34.6375L77.619 54.0434C77.6417 67.9987 77.777 73.7255 78.1007 74.4332C78.5386 75.3901 79.8059 75.9718 81.2375 75.8731C82.1197 75.8122 91.7615 70.5871 92.9308 69.5361L93.7957 68.7588L93.8038 48.0624L93.8115 27.3656L80.1684 13.8742C66.5904 0.447035 65.7662 -0.239975 64.3327 0.675528C64.0905 0.830153 57.0428 9.48227 48.6711 19.9022L33.4501 38.8476L33.447 61.3349L33.4436 83.8225L30.2722 81.7871L27.1008 79.7521L27.0016 58.6251L26.9021 37.4977L39.8963 21.5239C55.7158 2.07672 54.7467 3.36845 54.4377 2.14293C53.9668 0.274421 52.669 0 44.2997 0C38.7726 0 36.4981 0.132044 36.0583 0.478419ZM211.958 22.9722C209.446 23.4238 205.129 24.9727 202.726 26.2851C201.696 26.8474 199.468 28.6983 197.774 30.3984C192.913 35.2775 191.035 39.8783 191.025 46.9394C191.018 51.657 191.447 53.5711 193.456 57.793C196.341 63.8556 202.071 68.435 209.328 70.478C213.664 71.699 220.718 71.699 225.054 70.478C232.303 68.4373 238.029 63.8636 240.935 57.793C242.838 53.8187 243.331 51.5663 243.331 46.8445C243.331 42.4385 242.913 40.5852 240.98 36.415C239.788 33.8418 238.915 32.6366 236.513 30.2472C233.273 27.0234 230.227 25.2322 225.456 23.7445C222.391 22.7888 215.249 22.3801 211.958 22.9722ZM128.777 46.8851V70.4233H134.927H141.078V58.7499C141.078 52.3295 141.208 47.081 141.366 47.0864C141.525 47.0921 144.249 51.3103 147.421 56.4603L153.187 65.824L156.262 65.8205L159.337 65.8171L165.296 55.9046L171.254 45.9918L171.356 58.2075L171.457 70.4233H177.602H183.747V46.8851V23.3469H178.256H172.764L164.746 36.7426C160.337 44.1102 156.604 50.1383 156.452 50.1383C156.299 50.1383 152.48 44.1102 147.965 36.7426L139.755 23.3469H134.266H128.777V46.8851ZM250.635 46.8441V70.4233H265.593C281.802 70.4233 284.528 70.1772 288.53 68.3535C291.316 67.0835 294.155 64.2054 294.97 61.8259C295.779 59.461 295.791 55.7795 294.998 53.462C294.202 51.1354 291.481 48.15 289.061 46.9498L287.142 45.9975L288.505 45.1589C294.25 41.6236 294.958 32.0916 289.797 27.7674C287.986 26.2503 285.171 24.9413 282.254 24.2608C280.224 23.787 276.491 23.6125 265.146 23.4601L250.635 23.2649V46.8441ZM471.285 32.1815V41.0162L474.211 37.9199C475.82 36.2167 478.241 34.1117 479.593 33.2421L482.049 31.6606V27.5037V23.3469H476.667H471.285V32.1815ZM504.344 31.6989C504.344 41.2684 504.094 42.5028 501.576 45.3511C498.632 48.6809 493.933 50.0828 489.929 48.8255C488.016 48.2246 488.003 48.2266 487.155 49.1865C485.609 50.9367 484.654 55.8204 485.352 58.4077C485.644 59.4901 487.585 60.0692 491.851 60.3455C497.883 60.7363 503.241 58.777 507.746 54.5344C510.677 51.7741 512.465 49.0299 513.767 45.291C514.985 41.7947 515.261 38.1671 514.923 30.0922L514.641 23.3469H509.493H504.344V31.6989ZM519.873 23.8865C519.759 24.1835 519.736 31.2017 519.822 39.483C519.994 55.9911 520.07 56.6207 522.486 61.3854C524.728 65.8056 529.748 69.4626 535.481 70.852C538.485 71.5795 546.221 71.4881 549.239 70.6889C557.076 68.6137 562.083 63.4204 563.736 55.6543C564.174 53.5956 564.3 49.7208 564.306 38.1778L564.312 23.3469H557.777H551.242V35.8914C551.242 50.4579 550.913 54.1605 549.4 56.6081C548.03 58.826 546.888 59.6122 544.29 60.1269C540.054 60.9667 536.353 59.4637 534.696 56.2307C533.465 53.8275 533.191 50.2409 533.183 36.4555L533.175 23.3469H526.628C521.349 23.3469 520.04 23.4513 519.873 23.8865ZM570.078 46.8472V70.4233H585.086C601.072 70.4233 603.593 70.2024 607.628 68.4507C612.063 66.5255 614.643 63.0426 614.966 58.542C615.323 53.5722 612.843 49.1023 608.546 46.9704L606.669 46.0385L608.459 44.7077C609.511 43.9258 610.724 42.5223 611.402 41.3036C612.43 39.455 612.555 38.8779 612.553 35.9771C612.551 32.224 611.913 30.5538 609.605 28.2554C607.789 26.4474 605.782 25.4266 602.049 24.4124C599.365 23.6833 597.8 23.596 584.59 23.441L570.078 23.2707V46.8472ZM105.328 47.0764V70.4233H112.055H118.782L118.79 55.4009C118.794 47.1384 118.906 36.6327 119.039 32.0541L119.282 23.7296H112.305H105.328V47.0764ZM489.791 32.6033C481.048 33.8108 473.391 41.2225 471.477 50.3297C470.878 53.1818 470.728 60.6111 471.151 66.537L471.4 70.0406H476.532H481.664V61.6349C481.664 54.1942 481.751 52.9966 482.425 51.2054C484.497 45.6955 489.665 42.9716 495.681 44.2186C498.35 44.7716 498.617 44.6491 499.826 42.3179C500.779 40.4796 501.266 34.7906 500.544 33.9249C499.655 32.8578 493.46 32.0966 489.791 32.6033ZM264.089 37.6994V42.1009L269.567 42.0986C272.579 42.0974 275.682 41.9202 276.461 41.7048C279.439 40.8815 280.763 37.6191 279.016 35.4084C277.602 33.6176 276.216 33.298 269.867 33.298H264.089V37.6994ZM583.148 37.6994V42.1009L588.818 42.0986C595.156 42.0963 596.811 41.7863 598.168 40.3483C599.379 39.0654 599.462 36.4605 598.332 35.199C596.892 33.5904 595.474 33.298 589.119 33.298H583.148V37.6994ZM214.013 34.073C210.417 34.9763 207.486 37.3997 205.773 40.8853C204.302 43.8787 204.092 48.323 205.256 51.8063C206.322 54.9956 208.717 57.7368 211.712 59.1954C213.576 60.104 214.349 60.2521 217.171 60.2437C220.916 60.2322 222.991 59.5142 225.425 57.3862C229.248 54.0441 230.781 48.3885 229.333 42.9716C228.367 39.359 225.767 36.2756 222.464 34.8247C220.364 33.9015 216.178 33.5295 214.013 34.073ZM264.089 56.024V60.8549L270.528 60.8526C274.069 60.8515 277.637 60.6651 278.457 60.4385C281.324 59.6459 282.625 57.416 281.807 54.6963C281.454 53.5248 281.005 53.0188 279.738 52.3647C278.293 51.6184 277.371 51.5112 271.104 51.3612L264.089 51.1931V56.024ZM583.148 56.0998V60.9135L590.548 60.7883C596.815 60.6827 598.144 60.5571 599.228 59.9685C601.782 58.5807 602.212 54.8685 600.03 53.0406C598.441 51.7094 595.802 51.2865 589.088 51.2865H583.148V56.0998ZM510.687 56.0202C508.996 57.7578 506.622 59.7714 505.412 60.4955L503.213 61.8117L503.202 66.1175L503.191 70.4233H508.573H513.955V61.6204C513.955 56.7788 513.911 52.8274 513.858 52.8393C513.805 52.8515 512.378 54.2826 510.687 56.0202Z" fill="white"/>
<path d="M119 36L112.406 32.25L105.5 36V24H119V36Z" fill="#97989A" stroke="#97989A"/>
<path fill-rule="evenodd" clip-rule="evenodd" d="M380.772 23.2628C370.767 24.8546 364.89 30.3871 364.89 38.2136C364.89 41.5032 365.795 43.9807 367.817 46.2185C370.282 48.9482 373.6 50.4282 381.996 52.5413C389.036 54.3138 390.39 54.9135 391.414 56.7177C391.927 57.6214 391.926 57.8491 391.409 58.7857C390.375 60.6557 388.277 61.3722 383.918 61.345C379.341 61.3167 374.984 60.2848 370.994 58.2843L368.318 56.9424L367.418 58.9694C366.923 60.0839 365.978 62.1801 365.32 63.6276C364.66 65.0751 364.121 66.3872 364.121 66.5433C364.121 67.1101 369.771 69.5688 372.857 70.345C381.991 72.6422 390.999 72.0509 397.277 68.7421C406.148 64.0666 407.473 51.8539 399.669 46.7069C397.16 45.0523 394.585 44.146 387.272 42.3445C383.734 41.4734 380.479 40.4434 379.781 39.975C378.177 38.8987 377.687 37.5381 378.389 36.109C380.056 32.7137 388.133 32.3497 395.327 35.3458C396.663 35.9023 398.016 36.4374 398.333 36.5346C398.763 36.6658 399.416 35.4817 400.888 31.8989L402.865 27.0864L400.922 26.1058C396.359 23.804 386.296 22.3841 380.772 23.2628ZM303 47.3993V70.7461H321.067H339.134V65.5792V60.4123H327.794H316.454V42.2323V24.0524H309.727H303V47.3993ZM344.516 47.3993V70.7461H351.051H357.586V47.3993V24.0524H351.051H344.516V47.3993ZM406.022 29.2193V34.3863H413.325H420.629V52.5662V70.7461H427.164H433.699V52.5662V34.3863H441.003H448.307V29.2193V24.0524H427.164H406.022V29.2193Z" fill="#97989A"/>
</svg>
