<svg width="158" height="48" viewBox="0 0 158 48" fill="none" xmlns="http://www.w3.org/2000/svg" class="w-20 xl:w-36"><path d="M123.599 12.6208C123.968 12.6208 124.278 12.759 124.545 13.0444C124.819 13.3365 124.952 13.6687 124.952 14.0544V33.2588C124.952 33.6846 124.824 34.0302 124.558 34.3133C124.302 34.5876 123.988 34.7213 123.599 34.7213C123.206 34.7213 122.879 34.5853 122.602 34.3044C122.324 34.0213 122.189 33.6891 122.189 33.2878V14.0544C122.189 13.6664 122.322 13.3365 122.596 13.0444C122.863 12.7613 123.193 12.6208 123.599 12.6208ZM123.599 12.166C123.064 12.166 122.622 12.3555 122.269 12.7323C121.915 13.1091 121.738 13.5505 121.738 14.0544V33.2878C121.738 33.8117 121.92 34.2554 122.282 34.6255C122.644 34.9933 123.082 35.1784 123.599 35.1784C124.114 35.1784 124.543 34.9933 124.886 34.6255C125.228 34.2576 125.401 33.8028 125.401 33.2588V14.0544C125.401 13.5505 125.224 13.1113 124.87 12.7323C124.521 12.3555 124.097 12.166 123.599 12.166Z" fill="#FFFFFF"></path> <path d="M130.323 13.5525C130.776 13.5525 131.158 13.7174 131.492 14.0585C131.828 14.3997 131.992 14.8099 131.992 15.3093C131.992 15.8087 131.832 16.2144 131.505 16.5444C131.18 16.8743 130.791 17.0349 130.321 17.0349C129.826 17.0349 129.417 16.8721 129.072 16.5355C128.732 16.2055 128.566 15.7931 128.566 15.2781C128.566 14.7809 128.732 14.3796 129.072 14.0496C129.421 13.7152 129.83 13.5525 130.323 13.5525ZM130.323 13.0977C129.713 13.0977 129.191 13.3072 128.763 13.7241C128.334 14.141 128.117 14.6605 128.117 15.2803C128.117 15.9201 128.332 16.4485 128.763 16.8654C129.194 17.2823 129.713 17.4919 130.323 17.4919C130.915 17.4919 131.417 17.2846 131.828 16.8654C132.239 16.4485 132.445 15.9291 132.445 15.3093C132.445 14.6895 132.235 14.1656 131.815 13.7375C131.393 13.3117 130.898 13.0977 130.323 13.0977Z" fill="#FFFFFF"></path> <path d="M130.326 19.5163C130.682 19.5163 130.989 19.6523 131.265 19.9332C131.544 20.2164 131.678 20.5486 131.678 20.9499V33.2898C131.678 33.6956 131.55 34.0323 131.285 34.3132C131.029 34.5874 130.715 34.7212 130.326 34.7212C129.932 34.7212 129.605 34.5852 129.329 34.3043C129.051 34.0233 128.916 33.7001 128.916 33.3166V20.9186C128.916 20.5374 129.051 20.2141 129.329 19.9332C129.605 19.6523 129.93 19.5163 130.326 19.5163ZM130.326 19.0615C129.811 19.0615 129.371 19.2466 129.009 19.6122C128.646 19.98 128.465 20.4148 128.465 20.9186V33.3166C128.465 33.8205 128.646 34.2552 129.009 34.6231C129.371 34.9909 129.809 35.176 130.326 35.176C130.841 35.176 131.27 34.9909 131.612 34.6231C131.955 34.2552 132.127 33.8093 132.127 33.2876V20.9476C132.127 20.4259 131.946 19.98 131.583 19.6122C131.221 19.2443 130.801 19.0615 130.326 19.0615Z" fill="#FFFFFF"></path> <path d="M140.567 19.488C141.888 19.488 143.058 19.7622 144.043 20.2995C144.938 20.79 145.394 21.3251 145.394 21.8936C145.394 22.199 145.296 22.4509 145.095 22.665C144.899 22.8745 144.664 22.9704 144.359 22.9704C144.118 22.9704 143.851 22.8991 143.559 22.7564L142.783 22.393C142.381 22.1923 141.97 22.034 141.566 21.9203C141.15 21.8066 140.746 21.7487 140.368 21.7487C139.74 21.7487 139.214 21.907 138.803 22.2168C138.361 22.5535 138.127 23.0194 138.127 23.5657C138.127 23.8867 138.186 24.1409 138.308 24.3415C138.423 24.531 138.633 24.7205 138.964 24.9368C139.247 25.1196 139.499 25.2667 139.718 25.3715C139.926 25.4718 140.363 25.6569 141.053 25.9356L141.062 25.94L141.071 25.9423C141.705 26.1674 142.291 26.406 142.821 26.6557C143.234 26.8363 143.637 27.0592 144.012 27.3111C144.605 27.7169 145.058 28.1806 145.356 28.6912C145.648 29.1883 145.796 29.7591 145.796 30.39C145.796 31.6697 145.303 32.693 144.291 33.5201C143.263 34.3584 141.913 34.782 140.277 34.782C138.951 34.782 137.671 34.4699 136.473 33.8568C135.375 33.295 134.816 32.6819 134.816 32.0376C134.816 31.6898 134.926 31.3999 135.154 31.1547C135.377 30.9162 135.62 30.8047 135.919 30.8047C136.02 30.8047 136.339 30.8537 137.101 31.2952C137.464 31.5092 137.784 31.6965 138.06 31.8614C138.37 32.0443 138.752 32.2025 139.203 32.3296C139.652 32.4567 140.065 32.5214 140.432 32.5214C141.144 32.5214 141.754 32.3296 142.244 31.9484C142.764 31.5471 143.038 31.0142 143.038 30.4123C143.038 29.5384 142.295 28.8294 140.768 28.2475L139.501 27.7526C138.142 27.2264 137.159 26.7538 136.586 26.3569C135.766 25.7639 135.366 24.9279 135.366 23.7953C135.366 22.5312 135.833 21.5257 136.79 20.7187C137.758 19.9005 139.028 19.488 140.567 19.488ZM140.567 19.0332C138.913 19.0332 137.559 19.4791 136.5 20.3686C135.444 21.2582 134.913 22.3997 134.913 23.7931C134.913 25.0705 135.382 26.047 136.321 26.7248C136.933 27.1506 137.939 27.6344 139.338 28.1762L140.602 28.6689C141.924 29.1727 142.585 29.7524 142.585 30.4101C142.585 30.8738 142.379 31.2662 141.968 31.585C141.557 31.9038 141.044 32.0643 140.43 32.0643C140.105 32.0643 139.736 32.0064 139.322 31.8904C138.911 31.7745 138.566 31.634 138.288 31.4691C138.01 31.3041 137.689 31.1146 137.327 30.9028C136.694 30.5349 136.226 30.3499 135.919 30.3499C135.497 30.3499 135.132 30.5149 134.827 30.8448C134.52 31.1748 134.367 31.5716 134.367 32.0376C134.367 32.8714 135.001 33.6138 136.27 34.2626C137.539 34.9136 138.876 35.2368 140.279 35.2368C142.028 35.2368 143.462 34.782 144.576 33.8724C145.69 32.9628 146.249 31.8012 146.249 30.39C146.249 29.6744 146.081 29.03 145.745 28.4593C145.409 27.8886 144.916 27.3802 144.266 26.9366C143.864 26.6668 143.442 26.4327 143.002 26.2388C142.465 25.9869 141.873 25.7461 141.221 25.5142C140.551 25.2444 140.114 25.0594 139.912 24.9635C139.711 24.8677 139.477 24.7317 139.21 24.5578C138.942 24.3839 138.77 24.2345 138.692 24.1074C138.615 23.9826 138.578 23.802 138.578 23.5701C138.578 23.1644 138.743 22.8344 139.075 22.5825C139.406 22.3306 139.837 22.2057 140.368 22.2057C140.708 22.2057 141.068 22.257 141.449 22.3618C141.826 22.4666 142.207 22.6137 142.587 22.8032L143.371 23.1733C143.721 23.345 144.05 23.4297 144.361 23.4297C144.788 23.4297 145.142 23.2803 145.422 22.9815C145.703 22.6828 145.845 22.3216 145.845 21.898C145.845 21.1467 145.316 20.4823 144.258 19.9049C143.199 19.3208 141.968 19.0332 140.567 19.0332Z" fill="#FFFFFF"></path> <path d="M152.982 14.8904C153.346 14.8904 153.656 15.0264 153.925 15.3073C154.199 15.5904 154.332 15.9248 154.332 16.3283V19.2957V19.7505H154.783H156.113C156.443 19.7505 156.717 19.8687 156.951 20.1095C157.188 20.3525 157.302 20.629 157.302 20.9545C157.302 21.2933 157.19 21.5676 156.96 21.7905C156.723 22.0179 156.438 22.1294 156.085 22.1294H154.783H154.332V22.5842V33.29C154.332 33.6779 154.199 34.0101 153.928 34.3044C153.665 34.5898 153.348 34.728 152.966 34.728C152.597 34.728 152.288 34.5964 152.025 34.3244C151.759 34.0525 151.629 33.7225 151.629 33.319V22.5842V22.1294H151.178H150.265C149.927 22.1294 149.635 22.009 149.379 21.7615C149.127 21.5185 149.006 21.2465 149.006 20.9277C149.006 20.5844 149.116 20.3213 149.355 20.0961C149.598 19.8665 149.901 19.755 150.285 19.755H151.18H151.631V19.3002V16.3328C151.631 15.9248 151.757 15.5882 152.018 15.3028C152.268 15.0241 152.584 14.8904 152.982 14.8904ZM152.982 14.4355C152.456 14.4355 152.025 14.6206 151.686 14.9885C151.348 15.3563 151.18 15.8022 151.18 16.3261V19.2935H150.285C149.786 19.2935 149.372 19.4496 149.045 19.7595C148.718 20.0694 148.555 20.4573 148.555 20.9232C148.555 21.3691 148.725 21.757 149.067 22.087C149.41 22.417 149.81 22.5819 150.265 22.5819H151.178V33.3167C151.178 33.8407 151.353 34.2821 151.704 34.641C152.053 35 152.475 35.1783 152.968 35.1783C153.479 35.1783 153.91 34.9888 154.259 34.6121C154.608 34.233 154.785 33.7938 154.785 33.2878V22.5819H156.087C156.558 22.5819 156.953 22.4259 157.274 22.116C157.594 21.8061 157.756 21.4182 157.756 20.9522C157.756 20.5063 157.594 20.1184 157.274 19.7884C156.953 19.4585 156.566 19.2935 156.116 19.2935H154.785V16.3261C154.785 15.8022 154.606 15.3563 154.25 14.9885C153.892 14.6206 153.47 14.4355 152.982 14.4355Z" fill="#FFFFFF"></path> <path d="M73.2799 21.3028C73.4921 21.0509 73.6601 20.8613 73.7839 20.7365C73.9076 20.6116 74.0292 20.5091 74.1441 20.4311C74.6237 19.9852 75.205 19.6418 75.8879 19.3988C76.5709 19.1558 77.2958 19.0354 78.0649 19.0354C79.6982 19.0354 81.0155 19.5281 82.0167 20.5158C83.0157 21.5034 83.5151 22.8099 83.5151 24.4351V33.2905C83.5151 33.8122 83.3428 34.2581 83.0002 34.626C82.6576 34.9938 82.2266 35.1766 81.7139 35.1766C81.2188 35.1766 80.7834 34.996 80.4121 34.6371C80.0408 34.2782 79.8551 33.8256 79.8551 33.2816V24.8565C79.8551 24.0985 79.5988 23.452 79.086 22.9169C78.5733 22.3818 77.9699 22.1143 77.2737 22.1143C76.4626 22.1143 75.7708 22.3818 75.2006 22.9169C74.6303 23.452 74.3452 24.0985 74.3452 24.8565V33.2816C74.3452 33.8055 74.1618 34.2536 73.7971 34.6237C73.4324 34.9916 72.9794 35.1766 72.4423 35.1766C71.9605 35.1766 71.5472 34.9916 71.2024 34.626C70.8554 34.2581 70.683 33.8122 70.683 33.2905V24.9011C70.683 24.1476 70.4178 23.4943 69.8896 22.9414C69.3614 22.3907 68.7116 22.1143 67.9424 22.1143C67.1932 22.1143 66.539 22.3863 65.982 22.928C65.4251 23.472 65.1466 24.1208 65.1466 24.8766V33.3128C65.1466 33.8167 64.9742 34.2536 64.6272 34.6215C64.2802 34.9894 63.8581 35.1744 63.3586 35.1744C62.8392 35.1744 62.3972 34.9983 62.0325 34.6505C61.6678 34.3005 61.4844 33.8546 61.4844 33.3106V20.6362C61.4844 20.1903 61.6678 19.8113 62.0325 19.4991C62.3972 19.1893 62.8392 19.0332 63.3586 19.0332C63.8006 19.0332 64.1852 19.1915 64.5123 19.5058C64.8394 19.8224 65.0029 20.2059 65.0029 20.6585V20.8948L65.5223 20.197C65.887 19.8469 66.3865 19.566 67.0208 19.3542C67.6551 19.1402 68.2983 19.0332 68.9525 19.0332C69.337 19.0332 69.6929 19.0622 70.02 19.1201C70.3471 19.1781 70.7316 19.3007 71.1737 19.4835C71.6157 19.6686 71.9804 19.8759 72.2699 20.1078C72.5594 20.3419 72.8954 20.7387 73.2799 21.3028Z" fill="#FFFFFF"></path> <path d="M86.5508 27.106C86.5508 24.8231 87.2514 22.9058 88.6548 21.3563C90.0583 19.8068 91.7977 19.0332 93.8752 19.0332C95.9528 19.0332 97.6921 19.8068 99.0956 21.3563C100.499 22.9058 101.2 24.8409 101.2 27.164C101.2 29.4492 100.497 31.3687 99.0956 32.9271C97.6921 34.4855 95.9528 35.2658 93.8752 35.2658C91.7977 35.2658 90.0583 34.4833 88.6548 32.9137C87.2536 31.3442 86.5508 29.409 86.5508 27.106ZM93.8752 22.4064C92.8364 22.4064 91.9811 22.8522 91.3092 23.7396C90.6351 24.6291 90.2992 25.7594 90.2992 27.1328C90.2992 28.5641 90.6263 29.7234 91.2805 30.613C91.9347 31.5025 92.7989 31.9462 93.8752 31.9462C94.9516 31.9462 95.8157 31.5114 96.4699 30.6419C97.1241 29.7725 97.4512 28.6131 97.4512 27.1618C97.4512 25.7706 97.1241 24.6291 96.4699 23.7396C95.8179 22.8522 94.9538 22.4064 93.8752 22.4064Z" fill="#FFFFFF"></path> <path d="M107.751 33.2856V33.4305C107.751 33.9165 107.592 34.3379 107.276 34.6968C106.957 35.0557 106.568 35.2341 106.109 35.2341C105.589 35.2341 105.147 35.0602 104.782 34.7102C104.418 34.3602 104.234 33.9343 104.234 33.4283V14.0298C104.234 13.526 104.418 13.089 104.782 12.7189C105.147 12.3488 105.6 12.166 106.137 12.166C106.617 12.166 107.041 12.3511 107.406 12.7211C107.771 13.0912 107.954 13.5282 107.954 14.0343V20.6892C108.666 20.0293 109.285 19.5834 109.815 19.3515C110.343 19.1197 111.031 19.0015 111.877 19.0015C113.818 19.0015 115.442 19.7684 116.75 21.3001C118.057 22.8317 118.711 24.7423 118.711 27.0297C118.711 29.3573 118.066 31.3058 116.779 32.8776C115.491 34.4493 113.875 35.2341 111.935 35.2341C110.953 35.2341 110.191 35.1026 109.643 34.8417C109.092 34.5809 108.462 34.0614 107.751 33.2856ZM111.386 22.4348C110.31 22.4348 109.45 22.8674 108.805 23.7302C108.16 24.593 107.839 25.7433 107.839 27.1769C107.839 28.6305 108.162 29.7809 108.805 30.6236C109.448 31.4663 110.319 31.8899 111.415 31.8899C112.491 31.8899 113.356 31.453 114.01 30.5813C114.664 29.7095 114.991 28.5636 114.991 27.1479C114.991 25.7322 114.66 24.593 113.997 23.7302C113.331 22.8674 112.463 22.4348 111.386 22.4348Z" fill="#FFFFFF"></path> <path d="M59.0411 33.2906C59.0411 33.8123 58.8687 34.2582 58.5262 34.626C58.1836 34.9939 57.7526 35.1767 57.2399 35.1767C56.7249 35.1767 56.2851 34.9916 55.9226 34.626C55.5601 34.2582 55.3789 33.8234 55.3789 33.3195V20.9216C55.3789 20.4177 55.5601 19.983 55.9226 19.6151C56.2851 19.2473 56.7227 19.0645 57.2399 19.0645C57.7173 19.0645 58.135 19.2495 58.4974 19.6151C58.8599 19.983 59.0411 20.4289 59.0411 20.9506V33.2906Z" fill="#FFFFFF"></path> <path d="M55.0469 15.2803C55.0469 14.6605 55.2613 14.141 55.6922 13.7241C56.121 13.3072 56.6426 13.0977 57.2526 13.0977C57.825 13.0977 58.3223 13.3117 58.7423 13.7375C59.1622 14.1633 59.3721 14.6873 59.3721 15.3093C59.3721 15.9313 59.1666 16.4485 58.7555 16.8654C58.3444 17.2823 57.8427 17.4919 57.2504 17.4919C56.6404 17.4919 56.1188 17.2846 55.69 16.8654C55.2613 16.4485 55.0469 15.9201 55.0469 15.2803Z" fill="#FFFFFF"></path> <path d="M47.8881 14.3331C47.8881 14.3264 47.8859 14.3197 47.8859 14.3131C47.8859 14.3064 47.8881 14.3019 47.8881 14.2952C47.8881 14.2662 47.8792 14.2373 47.877 14.2083C47.8726 14.1503 47.8682 14.0923 47.8571 14.0366C47.8571 14.0321 47.8549 14.0277 47.8527 14.0232C47.7997 13.7824 47.6847 13.5662 47.5013 13.3811C47.4969 13.3767 47.4902 13.3722 47.4836 13.3678C47.4814 13.3655 47.4814 13.3633 47.4792 13.3633L34.8261 0.59749C34.7664 0.537295 34.7045 0.48602 34.6382 0.439201C34.6183 0.419136 34.6006 0.396844 34.5785 0.379009C34.2934 0.144917 33.9685 0.0468195 33.6061 0.0847201C33.2414 0.122621 32.9475 0.280913 32.722 0.559593L17.9317 19.3003C17.7239 19.5567 17.6333 19.851 17.6466 20.1832C17.6444 20.2077 17.64 20.23 17.64 20.2545V42.7764L14.3756 40.7342V19.1197L27.7669 2.16702C27.8508 2.06224 27.9127 1.94854 27.9614 1.83484C27.968 1.82146 27.9724 1.80809 27.9768 1.79471C28.0011 1.73228 28.021 1.66763 28.0343 1.60297C28.0387 1.58068 28.0431 1.55616 28.0476 1.53386C28.0564 1.48035 28.0608 1.42462 28.063 1.36665C28.063 1.34436 28.0696 1.3243 28.0696 1.29977C28.0696 1.27302 28.063 1.25072 28.063 1.22396C28.063 1.21059 28.0652 1.19499 28.063 1.18161C28.0608 1.16823 28.0564 1.15485 28.0564 1.14148C28.0498 1.07459 28.0365 1.00994 28.021 0.945283C28.0166 0.922989 28.0078 0.902924 28.0033 0.882859C27.9879 0.833811 27.9702 0.784765 27.9459 0.737946C27.9238 0.688899 27.8951 0.642084 27.8663 0.595265C27.8575 0.581889 27.8509 0.568509 27.842 0.557362C27.7779 0.465954 27.7072 0.37901 27.6166 0.303208C27.4309 0.149376 27.2254 0.0624281 27.0066 0.0245275H27.0044C26.9403 0.0133802 26.8762 0.00891752 26.8099 0.00668807C26.7856 0.00668807 26.7635 0 26.7391 0H19.6291C19.6026 0 19.576 0.00668807 19.5495 0.00668807C19.5252 0.00891752 19.5031 0.00445862 19.4766 0.00668807C19.4567 0.00891752 19.4412 0.0156099 19.4235 0.0178394C19.3816 0.0245277 19.3396 0.0334423 19.2976 0.04236C19.2467 0.0535073 19.1959 0.0691161 19.1473 0.0869517C19.1274 0.09364 19.1097 0.102555 19.0898 0.111472C18.8997 0.191732 18.7318 0.312123 18.5947 0.481561L6.51849 15.8358C6.31074 16.0921 6.22011 16.3864 6.23338 16.7186C6.23117 16.7431 6.22675 16.7654 6.22675 16.79V36.0457L3.52815 34.3602V14.9105L13.5821 2.16702C13.8164 1.87942 13.9137 1.54947 13.8783 1.18161C13.8429 0.813752 13.6926 0.52169 13.4296 0.305433C13.1445 0.0713412 12.8196 -0.0267493 12.4572 0.0111513C12.0925 0.0490519 11.7985 0.207337 11.5731 0.486018L1.20971 13.6197C1.00196 13.8761 0.911331 14.1704 0.924592 14.5026C0.922382 14.5271 0.917969 14.5494 0.917969 14.5739V34.8819C0.917969 34.9176 0.924594 34.9488 0.926804 34.9823C0.917964 35.1116 0.922383 35.2431 0.953325 35.3791C1.0351 35.738 1.22739 36.0145 1.52797 36.2062L6.81465 39.517C7.04008 39.6619 7.2832 39.7287 7.53958 39.7176C7.544 39.7176 7.54621 39.7176 7.55063 39.7176C7.91751 39.7176 8.22251 39.5861 8.46783 39.3252C8.65349 39.1268 8.7662 38.8972 8.81262 38.6386C8.82367 38.5761 8.82809 38.5137 8.82809 38.4513C8.8303 38.4245 8.83473 38.4022 8.83473 38.3755V17.1288L20.2325 2.63744H24.0604L12.0571 17.8311C11.8494 18.0897 11.7565 18.3862 11.772 18.7207C11.7698 18.7452 11.7654 18.7675 11.7654 18.792V41.2582C11.7654 41.2938 11.772 41.325 11.7742 41.3585C11.7654 41.4878 11.7698 41.6193 11.8007 41.7553C11.8825 42.1143 12.0748 42.3907 12.3754 42.5824L18.0002 46.1005C18.3008 46.2922 18.6301 46.348 18.9882 46.2677C19.0942 46.2432 19.1915 46.2075 19.2821 46.1629C19.512 46.1072 19.7131 45.9935 19.8833 45.8107C20.1286 45.5498 20.2501 45.231 20.2501 44.8587V20.5912L33.8602 3.3464L45.2801 14.866V33.8675L42.6854 35.3078V17.2202C42.6854 17.2136 42.6832 17.2069 42.6832 17.2002C42.6832 17.1935 42.6854 17.189 42.6854 17.1824C42.6854 17.1534 42.6765 17.1244 42.6743 17.0954C42.6699 17.0374 42.6655 16.9795 42.6544 16.9237C42.6544 16.9193 42.6522 16.9148 42.65 16.9104C42.597 16.6696 42.482 16.4533 42.2986 16.2683C42.2942 16.2638 42.2876 16.2594 42.2809 16.2549C42.2787 16.2527 42.2787 16.2504 42.2765 16.2504L35.3079 9.74491C35.3057 9.74268 35.3035 9.74045 35.3013 9.74045C35.2681 9.70033 35.235 9.65796 35.1952 9.62006C34.9255 9.36814 34.6073 9.24998 34.2426 9.26558C33.8757 9.28119 33.5729 9.42164 33.332 9.68472L23.6692 21.3938C23.4283 21.6568 23.3134 21.9734 23.3267 22.3435C23.3289 22.397 23.3399 22.4461 23.3466 22.4974C23.3355 22.5687 23.3267 22.6423 23.3267 22.7203V46.6757C23.3267 46.6891 23.3289 46.7002 23.3311 46.7136C23.3311 46.7649 23.3377 46.8139 23.3443 46.8652C23.3488 46.8986 23.351 46.9321 23.3598 46.9633C23.3687 47.0012 23.3819 47.0369 23.393 47.0725C23.4085 47.1216 23.4261 47.1729 23.446 47.2197C23.4482 47.2242 23.4482 47.2264 23.4504 47.2308C23.4571 47.242 23.4637 47.2509 23.4703 47.2621C23.5013 47.3222 23.5344 47.3824 23.5764 47.4382C23.5963 47.4649 23.6184 47.4872 23.6383 47.514C23.6648 47.5452 23.6869 47.5786 23.7157 47.6076C23.7267 47.6188 23.74 47.6255 23.751 47.6366C23.7621 47.6477 23.7753 47.6567 23.7864 47.6656C24.0317 47.8841 24.319 48 24.655 48C24.9578 48 25.2164 47.9064 25.4352 47.728L36.3953 41.5836C36.6959 41.4365 36.9036 41.2024 37.0296 40.8858C37.034 40.8747 37.0407 40.8635 37.0451 40.8524C37.0495 40.8435 37.0539 40.8346 37.0561 40.8256C37.0738 40.7766 37.0804 40.7275 37.0915 40.6785C37.0981 40.6517 37.107 40.6272 37.1114 40.5982C37.1202 40.5425 37.1224 40.4868 37.1246 40.431C37.1269 40.3998 37.1313 40.3731 37.1313 40.3418V20.1141C37.1313 19.7418 37.0009 19.4252 36.7445 19.1621C36.4859 18.9012 36.1875 18.7697 35.8472 18.7697C35.4803 18.7697 35.1664 18.9012 34.9101 19.1621C34.6515 19.4252 34.5233 19.7351 34.5233 20.094V39.6262L25.9369 44.4418V22.7537L34.4106 12.4849L40.0774 17.7776V37.4681C40.0774 37.827 40.2056 38.1369 40.4642 38.4C40.7228 38.6608 41.0344 38.7924 41.4013 38.7924C41.4234 38.7924 41.4455 38.7879 41.4676 38.7857C41.6643 38.7901 41.8588 38.75 42.0466 38.6586L47.1101 35.8517C47.351 35.7336 47.5344 35.5597 47.6626 35.3323C47.8129 35.1093 47.8881 34.8529 47.8881 34.5609V14.3331Z" fill="#FFFFFF"></path></svg>